<mxfile host="app.diagrams.net" modified="2022-06-24T06:15:26.350Z" agent="5.0 (Windows NT 10.0; Win64; x64) AppleWebKit/537.36 (KHTML, like Gecko) Chrome/102.0.5005.124 Safari/537.36 Edg/102.0.1245.44" etag="1J0nTL7QKwV4dF-DlQxG" version="18.1.3" type="github">
  <diagram id="C5RBs43oDa-KdzZeNtuy" name="Page-1">
    <mxGraphModel dx="981" dy="548" grid="1" gridSize="10" guides="1" tooltips="1" connect="1" arrows="1" fold="1" page="1" pageScale="1" pageWidth="827" pageHeight="1169" math="0" shadow="0">
      <root>
        <mxCell id="WIyWlLk6GJQsqaUBKTNV-0" />
        <mxCell id="WIyWlLk6GJQsqaUBKTNV-1" parent="WIyWlLk6GJQsqaUBKTNV-0" />
        <mxCell id="pNIK9FPsd3UsHX8eXfRk-8" style="edgeStyle=orthogonalEdgeStyle;rounded=0;orthogonalLoop=1;jettySize=auto;html=1;entryX=0.5;entryY=0;entryDx=0;entryDy=0;" edge="1" parent="WIyWlLk6GJQsqaUBKTNV-1" source="pNIK9FPsd3UsHX8eXfRk-5" target="pNIK9FPsd3UsHX8eXfRk-7">
          <mxGeometry relative="1" as="geometry" />
        </mxCell>
        <mxCell id="pNIK9FPsd3UsHX8eXfRk-5" value="Initial Prompt for BlackJack" style="strokeWidth=2;html=1;shape=mxgraph.flowchart.start_1;whiteSpace=wrap;fillColor=#f5f5f5;fontColor=#333333;strokeColor=#666666;" vertex="1" parent="WIyWlLk6GJQsqaUBKTNV-1">
          <mxGeometry x="314" y="30" width="100" height="60" as="geometry" />
        </mxCell>
        <mxCell id="pNIK9FPsd3UsHX8eXfRk-11" style="edgeStyle=orthogonalEdgeStyle;rounded=0;orthogonalLoop=1;jettySize=auto;html=1;entryX=0.5;entryY=0;entryDx=0;entryDy=0;" edge="1" parent="WIyWlLk6GJQsqaUBKTNV-1" source="pNIK9FPsd3UsHX8eXfRk-7" target="pNIK9FPsd3UsHX8eXfRk-35">
          <mxGeometry relative="1" as="geometry">
            <mxPoint x="364" y="260" as="targetPoint" />
          </mxGeometry>
        </mxCell>
        <mxCell id="pNIK9FPsd3UsHX8eXfRk-7" value="Draw 2 random cards from card list for both user and dealer" style="rounded=1;whiteSpace=wrap;html=1;absoluteArcSize=1;arcSize=14;strokeWidth=2;fillColor=#dae8fc;strokeColor=#6c8ebf;" vertex="1" parent="WIyWlLk6GJQsqaUBKTNV-1">
          <mxGeometry x="277" y="110" width="174" height="50" as="geometry" />
        </mxCell>
        <mxCell id="pNIK9FPsd3UsHX8eXfRk-38" style="edgeStyle=orthogonalEdgeStyle;rounded=0;orthogonalLoop=1;jettySize=auto;html=1;exitX=0.5;exitY=1;exitDx=0;exitDy=0;entryX=0.5;entryY=0;entryDx=0;entryDy=0;entryPerimeter=0;" edge="1" parent="WIyWlLk6GJQsqaUBKTNV-1" source="pNIK9FPsd3UsHX8eXfRk-35" target="pNIK9FPsd3UsHX8eXfRk-36">
          <mxGeometry relative="1" as="geometry" />
        </mxCell>
        <mxCell id="pNIK9FPsd3UsHX8eXfRk-35" value="Sum user&#39;s and computer&#39;s scores" style="rounded=1;whiteSpace=wrap;html=1;fillColor=#dae8fc;strokeColor=#6c8ebf;" vertex="1" parent="WIyWlLk6GJQsqaUBKTNV-1">
          <mxGeometry x="304" y="180" width="120" height="60" as="geometry" />
        </mxCell>
        <mxCell id="pNIK9FPsd3UsHX8eXfRk-40" style="edgeStyle=orthogonalEdgeStyle;rounded=0;orthogonalLoop=1;jettySize=auto;html=1;entryX=0.5;entryY=0;entryDx=0;entryDy=0;entryPerimeter=0;" edge="1" parent="WIyWlLk6GJQsqaUBKTNV-1" source="pNIK9FPsd3UsHX8eXfRk-36" target="pNIK9FPsd3UsHX8eXfRk-39">
          <mxGeometry relative="1" as="geometry" />
        </mxCell>
        <mxCell id="pNIK9FPsd3UsHX8eXfRk-43" style="edgeStyle=orthogonalEdgeStyle;rounded=0;orthogonalLoop=1;jettySize=auto;html=1;entryX=0;entryY=0.5;entryDx=0;entryDy=0;" edge="1" parent="WIyWlLk6GJQsqaUBKTNV-1" source="pNIK9FPsd3UsHX8eXfRk-36" target="pNIK9FPsd3UsHX8eXfRk-41">
          <mxGeometry relative="1" as="geometry">
            <Array as="points">
              <mxPoint x="510" y="325" />
              <mxPoint x="510" y="260" />
            </Array>
          </mxGeometry>
        </mxCell>
        <mxCell id="pNIK9FPsd3UsHX8eXfRk-44" style="edgeStyle=orthogonalEdgeStyle;rounded=0;orthogonalLoop=1;jettySize=auto;html=1;entryX=0;entryY=0.5;entryDx=0;entryDy=0;" edge="1" parent="WIyWlLk6GJQsqaUBKTNV-1" source="pNIK9FPsd3UsHX8eXfRk-36" target="pNIK9FPsd3UsHX8eXfRk-42">
          <mxGeometry relative="1" as="geometry">
            <Array as="points">
              <mxPoint x="510" y="325" />
              <mxPoint x="510" y="300" />
            </Array>
          </mxGeometry>
        </mxCell>
        <mxCell id="pNIK9FPsd3UsHX8eXfRk-36" value="Does the user or computer have a blackjack? (Ace + 10)" style="strokeWidth=2;html=1;shape=mxgraph.flowchart.decision;whiteSpace=wrap;fillColor=#ffe6cc;strokeColor=#d79b00;" vertex="1" parent="WIyWlLk6GJQsqaUBKTNV-1">
          <mxGeometry x="252.5" y="260" width="223" height="130" as="geometry" />
        </mxCell>
        <mxCell id="pNIK9FPsd3UsHX8eXfRk-49" style="edgeStyle=orthogonalEdgeStyle;rounded=0;orthogonalLoop=1;jettySize=auto;html=1;entryX=0;entryY=0.5;entryDx=0;entryDy=0;entryPerimeter=0;" edge="1" parent="WIyWlLk6GJQsqaUBKTNV-1" source="pNIK9FPsd3UsHX8eXfRk-39" target="pNIK9FPsd3UsHX8eXfRk-48">
          <mxGeometry relative="1" as="geometry" />
        </mxCell>
        <mxCell id="pNIK9FPsd3UsHX8eXfRk-63" style="edgeStyle=orthogonalEdgeStyle;rounded=0;orthogonalLoop=1;jettySize=auto;html=1;entryX=0.5;entryY=0;entryDx=0;entryDy=0;entryPerimeter=0;" edge="1" parent="WIyWlLk6GJQsqaUBKTNV-1" source="pNIK9FPsd3UsHX8eXfRk-39" target="pNIK9FPsd3UsHX8eXfRk-47">
          <mxGeometry relative="1" as="geometry" />
        </mxCell>
        <mxCell id="pNIK9FPsd3UsHX8eXfRk-39" value="Is user&#39;s score over 21?" style="strokeWidth=2;html=1;shape=mxgraph.flowchart.decision;whiteSpace=wrap;fillColor=#ffe6cc;strokeColor=#d79b00;" vertex="1" parent="WIyWlLk6GJQsqaUBKTNV-1">
          <mxGeometry x="292" y="410" width="144" height="110" as="geometry" />
        </mxCell>
        <mxCell id="pNIK9FPsd3UsHX8eXfRk-41" value="Win" style="rounded=1;whiteSpace=wrap;html=1;absoluteArcSize=1;arcSize=14;strokeWidth=2;fillColor=#d5e8d4;strokeColor=#82b366;" vertex="1" parent="WIyWlLk6GJQsqaUBKTNV-1">
          <mxGeometry x="587.5" y="250" width="60" height="20" as="geometry" />
        </mxCell>
        <mxCell id="pNIK9FPsd3UsHX8eXfRk-42" value="Lose" style="rounded=1;whiteSpace=wrap;html=1;absoluteArcSize=1;arcSize=14;strokeWidth=2;fillColor=#f8cecc;strokeColor=#b85450;" vertex="1" parent="WIyWlLk6GJQsqaUBKTNV-1">
          <mxGeometry x="587.5" y="290" width="60" height="20" as="geometry" />
        </mxCell>
        <mxCell id="pNIK9FPsd3UsHX8eXfRk-45" value="User" style="text;html=1;align=center;verticalAlign=middle;resizable=0;points=[];autosize=1;strokeColor=none;fillColor=none;" vertex="1" parent="WIyWlLk6GJQsqaUBKTNV-1">
          <mxGeometry x="522.5" y="240" width="40" height="20" as="geometry" />
        </mxCell>
        <mxCell id="pNIK9FPsd3UsHX8eXfRk-46" value="Computer" style="text;html=1;align=center;verticalAlign=middle;resizable=0;points=[];autosize=1;strokeColor=none;fillColor=none;" vertex="1" parent="WIyWlLk6GJQsqaUBKTNV-1">
          <mxGeometry x="507.5" y="280" width="70" height="20" as="geometry" />
        </mxCell>
        <mxCell id="pNIK9FPsd3UsHX8eXfRk-65" style="edgeStyle=orthogonalEdgeStyle;rounded=0;orthogonalLoop=1;jettySize=auto;html=1;entryX=0;entryY=0.5;entryDx=0;entryDy=0;" edge="1" parent="WIyWlLk6GJQsqaUBKTNV-1" source="pNIK9FPsd3UsHX8eXfRk-47" target="pNIK9FPsd3UsHX8eXfRk-35">
          <mxGeometry relative="1" as="geometry">
            <mxPoint x="160" y="140" as="targetPoint" />
            <Array as="points">
              <mxPoint x="180" y="600" />
              <mxPoint x="180" y="210" />
            </Array>
          </mxGeometry>
        </mxCell>
        <mxCell id="pNIK9FPsd3UsHX8eXfRk-68" style="edgeStyle=orthogonalEdgeStyle;rounded=0;orthogonalLoop=1;jettySize=auto;html=1;entryX=0.5;entryY=0;entryDx=0;entryDy=0;" edge="1" parent="WIyWlLk6GJQsqaUBKTNV-1" source="pNIK9FPsd3UsHX8eXfRk-47" target="pNIK9FPsd3UsHX8eXfRk-67">
          <mxGeometry relative="1" as="geometry" />
        </mxCell>
        <mxCell id="pNIK9FPsd3UsHX8eXfRk-47" value="Ask user if they want to draw another card" style="strokeWidth=2;html=1;shape=mxgraph.flowchart.decision;whiteSpace=wrap;fillColor=#ffe6cc;strokeColor=#d79b00;" vertex="1" parent="WIyWlLk6GJQsqaUBKTNV-1">
          <mxGeometry x="266" y="550" width="196" height="100" as="geometry" />
        </mxCell>
        <mxCell id="pNIK9FPsd3UsHX8eXfRk-54" value="" style="edgeStyle=orthogonalEdgeStyle;rounded=0;orthogonalLoop=1;jettySize=auto;html=1;" edge="1" parent="WIyWlLk6GJQsqaUBKTNV-1" source="pNIK9FPsd3UsHX8eXfRk-48" target="pNIK9FPsd3UsHX8eXfRk-53">
          <mxGeometry relative="1" as="geometry">
            <Array as="points">
              <mxPoint x="630" y="465" />
              <mxPoint x="630" y="465" />
            </Array>
          </mxGeometry>
        </mxCell>
        <mxCell id="pNIK9FPsd3UsHX8eXfRk-61" style="edgeStyle=orthogonalEdgeStyle;rounded=0;orthogonalLoop=1;jettySize=auto;html=1;entryX=0.5;entryY=1;entryDx=0;entryDy=0;" edge="1" parent="WIyWlLk6GJQsqaUBKTNV-1" source="pNIK9FPsd3UsHX8eXfRk-48" target="pNIK9FPsd3UsHX8eXfRk-50">
          <mxGeometry relative="1" as="geometry" />
        </mxCell>
        <mxCell id="pNIK9FPsd3UsHX8eXfRk-48" value="Does user have an &quot;Ace&quot;?" style="strokeWidth=2;html=1;shape=mxgraph.flowchart.decision;whiteSpace=wrap;fillColor=#ffe6cc;strokeColor=#d79b00;" vertex="1" parent="WIyWlLk6GJQsqaUBKTNV-1">
          <mxGeometry x="460" y="405" width="140" height="120" as="geometry" />
        </mxCell>
        <mxCell id="pNIK9FPsd3UsHX8eXfRk-50" value="Lose" style="rounded=1;whiteSpace=wrap;html=1;absoluteArcSize=1;arcSize=14;strokeWidth=2;fillColor=#f8cecc;strokeColor=#b85450;" vertex="1" parent="WIyWlLk6GJQsqaUBKTNV-1">
          <mxGeometry x="587.5" y="340" width="60" height="20" as="geometry" />
        </mxCell>
        <mxCell id="pNIK9FPsd3UsHX8eXfRk-52" value="No" style="text;html=1;align=center;verticalAlign=middle;resizable=0;points=[];autosize=1;strokeColor=none;fillColor=none;" vertex="1" parent="WIyWlLk6GJQsqaUBKTNV-1">
          <mxGeometry x="557.5" y="360" width="30" height="20" as="geometry" />
        </mxCell>
        <mxCell id="pNIK9FPsd3UsHX8eXfRk-57" style="edgeStyle=orthogonalEdgeStyle;rounded=0;orthogonalLoop=1;jettySize=auto;html=1;exitX=0.5;exitY=0;exitDx=0;exitDy=0;exitPerimeter=0;entryX=1;entryY=0.5;entryDx=0;entryDy=0;" edge="1" parent="WIyWlLk6GJQsqaUBKTNV-1" source="pNIK9FPsd3UsHX8eXfRk-53" target="pNIK9FPsd3UsHX8eXfRk-50">
          <mxGeometry relative="1" as="geometry" />
        </mxCell>
        <mxCell id="pNIK9FPsd3UsHX8eXfRk-53" value="If &quot;Ace&quot; counts as 1 instead of 11, is user score &amp;gt; 21?" style="strokeWidth=2;html=1;shape=mxgraph.flowchart.decision;whiteSpace=wrap;fillColor=#ffe6cc;strokeColor=#d79b00;" vertex="1" parent="WIyWlLk6GJQsqaUBKTNV-1">
          <mxGeometry x="630" y="395" width="140" height="140" as="geometry" />
        </mxCell>
        <mxCell id="pNIK9FPsd3UsHX8eXfRk-58" value="Yes" style="text;html=1;align=center;verticalAlign=middle;resizable=0;points=[];autosize=1;strokeColor=none;fillColor=none;" vertex="1" parent="WIyWlLk6GJQsqaUBKTNV-1">
          <mxGeometry x="660" y="330" width="40" height="20" as="geometry" />
        </mxCell>
        <mxCell id="pNIK9FPsd3UsHX8eXfRk-64" value="No" style="text;html=1;align=center;verticalAlign=middle;resizable=0;points=[];autosize=1;strokeColor=none;fillColor=none;" vertex="1" parent="WIyWlLk6GJQsqaUBKTNV-1">
          <mxGeometry x="360" y="520" width="30" height="20" as="geometry" />
        </mxCell>
        <mxCell id="pNIK9FPsd3UsHX8eXfRk-66" value="Yes" style="text;html=1;align=center;verticalAlign=middle;resizable=0;points=[];autosize=1;strokeColor=none;fillColor=none;" vertex="1" parent="WIyWlLk6GJQsqaUBKTNV-1">
          <mxGeometry x="200" y="575" width="40" height="20" as="geometry" />
        </mxCell>
        <mxCell id="pNIK9FPsd3UsHX8eXfRk-70" value="" style="edgeStyle=orthogonalEdgeStyle;rounded=0;orthogonalLoop=1;jettySize=auto;html=1;" edge="1" parent="WIyWlLk6GJQsqaUBKTNV-1" source="pNIK9FPsd3UsHX8eXfRk-67" target="pNIK9FPsd3UsHX8eXfRk-69">
          <mxGeometry relative="1" as="geometry">
            <Array as="points">
              <mxPoint x="364" y="840" />
              <mxPoint x="364" y="840" />
            </Array>
          </mxGeometry>
        </mxCell>
        <mxCell id="pNIK9FPsd3UsHX8eXfRk-67" value="If computer score &amp;lt; 17, keep drawing cards" style="rounded=1;whiteSpace=wrap;html=1;absoluteArcSize=1;arcSize=14;strokeWidth=2;fillColor=#dae8fc;strokeColor=#6c8ebf;" vertex="1" parent="WIyWlLk6GJQsqaUBKTNV-1">
          <mxGeometry x="314" y="700" width="100" height="100" as="geometry" />
        </mxCell>
        <mxCell id="pNIK9FPsd3UsHX8eXfRk-73" style="edgeStyle=orthogonalEdgeStyle;rounded=0;orthogonalLoop=1;jettySize=auto;html=1;entryX=0;entryY=0.5;entryDx=0;entryDy=0;" edge="1" parent="WIyWlLk6GJQsqaUBKTNV-1" source="pNIK9FPsd3UsHX8eXfRk-69" target="pNIK9FPsd3UsHX8eXfRk-72">
          <mxGeometry relative="1" as="geometry" />
        </mxCell>
        <mxCell id="pNIK9FPsd3UsHX8eXfRk-76" style="edgeStyle=orthogonalEdgeStyle;rounded=0;orthogonalLoop=1;jettySize=auto;html=1;entryX=0.5;entryY=0;entryDx=0;entryDy=0;entryPerimeter=0;" edge="1" parent="WIyWlLk6GJQsqaUBKTNV-1" source="pNIK9FPsd3UsHX8eXfRk-69" target="pNIK9FPsd3UsHX8eXfRk-74">
          <mxGeometry relative="1" as="geometry" />
        </mxCell>
        <mxCell id="pNIK9FPsd3UsHX8eXfRk-69" value="Computer score &amp;gt; 21?" style="strokeWidth=2;html=1;shape=mxgraph.flowchart.decision;whiteSpace=wrap;fillColor=#ffe6cc;strokeColor=#d79b00;" vertex="1" parent="WIyWlLk6GJQsqaUBKTNV-1">
          <mxGeometry x="286" y="840" width="156" height="100" as="geometry" />
        </mxCell>
        <mxCell id="pNIK9FPsd3UsHX8eXfRk-72" value="Win" style="rounded=1;whiteSpace=wrap;html=1;absoluteArcSize=1;arcSize=14;strokeWidth=2;fillColor=#d5e8d4;strokeColor=#82b366;" vertex="1" parent="WIyWlLk6GJQsqaUBKTNV-1">
          <mxGeometry x="490" y="880" width="60" height="20" as="geometry" />
        </mxCell>
        <mxCell id="pNIK9FPsd3UsHX8eXfRk-80" style="edgeStyle=orthogonalEdgeStyle;rounded=0;orthogonalLoop=1;jettySize=auto;html=1;entryX=0.5;entryY=0;entryDx=0;entryDy=0;" edge="1" parent="WIyWlLk6GJQsqaUBKTNV-1" source="pNIK9FPsd3UsHX8eXfRk-74" target="pNIK9FPsd3UsHX8eXfRk-79">
          <mxGeometry relative="1" as="geometry" />
        </mxCell>
        <mxCell id="pNIK9FPsd3UsHX8eXfRk-82" style="edgeStyle=orthogonalEdgeStyle;rounded=0;orthogonalLoop=1;jettySize=auto;html=1;entryX=0;entryY=0.5;entryDx=0;entryDy=0;" edge="1" parent="WIyWlLk6GJQsqaUBKTNV-1" source="pNIK9FPsd3UsHX8eXfRk-74" target="pNIK9FPsd3UsHX8eXfRk-77">
          <mxGeometry relative="1" as="geometry" />
        </mxCell>
        <mxCell id="pNIK9FPsd3UsHX8eXfRk-84" style="edgeStyle=orthogonalEdgeStyle;rounded=0;orthogonalLoop=1;jettySize=auto;html=1;entryX=1;entryY=0.5;entryDx=0;entryDy=0;" edge="1" parent="WIyWlLk6GJQsqaUBKTNV-1" source="pNIK9FPsd3UsHX8eXfRk-74" target="pNIK9FPsd3UsHX8eXfRk-78">
          <mxGeometry relative="1" as="geometry" />
        </mxCell>
        <mxCell id="pNIK9FPsd3UsHX8eXfRk-74" value="Compare user score and computer score, if user score higher" style="strokeWidth=2;html=1;shape=mxgraph.flowchart.decision;whiteSpace=wrap;fillColor=#ffe6cc;strokeColor=#d79b00;" vertex="1" parent="WIyWlLk6GJQsqaUBKTNV-1">
          <mxGeometry x="257.75" y="980" width="212.5" height="150" as="geometry" />
        </mxCell>
        <mxCell id="pNIK9FPsd3UsHX8eXfRk-90" style="edgeStyle=orthogonalEdgeStyle;rounded=0;orthogonalLoop=1;jettySize=auto;html=1;entryX=1;entryY=0.5;entryDx=0;entryDy=0;entryPerimeter=0;" edge="1" parent="WIyWlLk6GJQsqaUBKTNV-1" source="pNIK9FPsd3UsHX8eXfRk-77" target="pNIK9FPsd3UsHX8eXfRk-87">
          <mxGeometry relative="1" as="geometry">
            <Array as="points">
              <mxPoint x="580" y="1300" />
            </Array>
          </mxGeometry>
        </mxCell>
        <mxCell id="pNIK9FPsd3UsHX8eXfRk-77" value="Win" style="rounded=1;whiteSpace=wrap;html=1;absoluteArcSize=1;arcSize=14;strokeWidth=2;fillColor=#d5e8d4;strokeColor=#82b366;" vertex="1" parent="WIyWlLk6GJQsqaUBKTNV-1">
          <mxGeometry x="550" y="1045" width="60" height="20" as="geometry" />
        </mxCell>
        <mxCell id="pNIK9FPsd3UsHX8eXfRk-89" style="edgeStyle=orthogonalEdgeStyle;rounded=0;orthogonalLoop=1;jettySize=auto;html=1;entryX=0;entryY=0.5;entryDx=0;entryDy=0;entryPerimeter=0;" edge="1" parent="WIyWlLk6GJQsqaUBKTNV-1" source="pNIK9FPsd3UsHX8eXfRk-78" target="pNIK9FPsd3UsHX8eXfRk-87">
          <mxGeometry relative="1" as="geometry">
            <Array as="points">
              <mxPoint x="140" y="1300" />
            </Array>
          </mxGeometry>
        </mxCell>
        <mxCell id="pNIK9FPsd3UsHX8eXfRk-78" value="Lose" style="rounded=1;whiteSpace=wrap;html=1;absoluteArcSize=1;arcSize=14;strokeWidth=2;fillColor=#f8cecc;strokeColor=#b85450;" vertex="1" parent="WIyWlLk6GJQsqaUBKTNV-1">
          <mxGeometry x="110" y="1045" width="60" height="20" as="geometry" />
        </mxCell>
        <mxCell id="pNIK9FPsd3UsHX8eXfRk-88" style="edgeStyle=orthogonalEdgeStyle;rounded=0;orthogonalLoop=1;jettySize=auto;html=1;entryX=0.5;entryY=0;entryDx=0;entryDy=0;entryPerimeter=0;" edge="1" parent="WIyWlLk6GJQsqaUBKTNV-1" source="pNIK9FPsd3UsHX8eXfRk-79" target="pNIK9FPsd3UsHX8eXfRk-87">
          <mxGeometry relative="1" as="geometry" />
        </mxCell>
        <mxCell id="pNIK9FPsd3UsHX8eXfRk-79" value="Draw" style="rounded=1;whiteSpace=wrap;html=1;absoluteArcSize=1;arcSize=14;strokeWidth=2;fillColor=#fff2cc;strokeColor=#d6b656;" vertex="1" parent="WIyWlLk6GJQsqaUBKTNV-1">
          <mxGeometry x="334" y="1180" width="60" height="20" as="geometry" />
        </mxCell>
        <mxCell id="pNIK9FPsd3UsHX8eXfRk-81" value="Same score" style="text;html=1;align=center;verticalAlign=middle;resizable=0;points=[];autosize=1;strokeColor=none;fillColor=none;" vertex="1" parent="WIyWlLk6GJQsqaUBKTNV-1">
          <mxGeometry x="371" y="1140" width="80" height="20" as="geometry" />
        </mxCell>
        <mxCell id="pNIK9FPsd3UsHX8eXfRk-85" value="User higher" style="text;html=1;align=center;verticalAlign=middle;resizable=0;points=[];autosize=1;strokeColor=none;fillColor=none;" vertex="1" parent="WIyWlLk6GJQsqaUBKTNV-1">
          <mxGeometry x="470" y="1030" width="80" height="20" as="geometry" />
        </mxCell>
        <mxCell id="pNIK9FPsd3UsHX8eXfRk-86" value="User lower" style="text;html=1;align=center;verticalAlign=middle;resizable=0;points=[];autosize=1;strokeColor=none;fillColor=none;" vertex="1" parent="WIyWlLk6GJQsqaUBKTNV-1">
          <mxGeometry x="182.5" y="1030" width="70" height="20" as="geometry" />
        </mxCell>
        <mxCell id="pNIK9FPsd3UsHX8eXfRk-95" style="edgeStyle=orthogonalEdgeStyle;rounded=0;orthogonalLoop=1;jettySize=auto;html=1;entryX=0.5;entryY=0;entryDx=0;entryDy=0;entryPerimeter=0;" edge="1" parent="WIyWlLk6GJQsqaUBKTNV-1" source="pNIK9FPsd3UsHX8eXfRk-87" target="pNIK9FPsd3UsHX8eXfRk-99">
          <mxGeometry relative="1" as="geometry">
            <mxPoint x="364" y="1470" as="targetPoint" />
          </mxGeometry>
        </mxCell>
        <mxCell id="pNIK9FPsd3UsHX8eXfRk-96" style="edgeStyle=orthogonalEdgeStyle;rounded=0;orthogonalLoop=1;jettySize=auto;html=1;entryX=0;entryY=0.5;entryDx=0;entryDy=0;entryPerimeter=0;" edge="1" parent="WIyWlLk6GJQsqaUBKTNV-1" source="pNIK9FPsd3UsHX8eXfRk-87" target="pNIK9FPsd3UsHX8eXfRk-5">
          <mxGeometry relative="1" as="geometry">
            <mxPoint x="70" y="30" as="targetPoint" />
            <Array as="points">
              <mxPoint x="364" y="1390" />
              <mxPoint x="70" y="1390" />
              <mxPoint x="70" y="60" />
            </Array>
          </mxGeometry>
        </mxCell>
        <mxCell id="pNIK9FPsd3UsHX8eXfRk-87" value="Play again?" style="strokeWidth=2;html=1;shape=mxgraph.flowchart.decision;whiteSpace=wrap;fillColor=#ffe6cc;strokeColor=#d79b00;" vertex="1" parent="WIyWlLk6GJQsqaUBKTNV-1">
          <mxGeometry x="314" y="1250" width="100" height="100" as="geometry" />
        </mxCell>
        <mxCell id="pNIK9FPsd3UsHX8eXfRk-97" value="Yes" style="text;html=1;align=center;verticalAlign=middle;resizable=0;points=[];autosize=1;strokeColor=none;fillColor=none;" vertex="1" parent="WIyWlLk6GJQsqaUBKTNV-1">
          <mxGeometry x="190" y="1370" width="40" height="20" as="geometry" />
        </mxCell>
        <mxCell id="pNIK9FPsd3UsHX8eXfRk-98" value="No" style="text;html=1;align=center;verticalAlign=middle;resizable=0;points=[];autosize=1;strokeColor=none;fillColor=none;" vertex="1" parent="WIyWlLk6GJQsqaUBKTNV-1">
          <mxGeometry x="371" y="1420" width="30" height="20" as="geometry" />
        </mxCell>
        <mxCell id="pNIK9FPsd3UsHX8eXfRk-99" value="Blackjack End" style="strokeWidth=2;html=1;shape=mxgraph.flowchart.terminator;whiteSpace=wrap;fillColor=#f5f5f5;fontColor=#333333;strokeColor=#666666;" vertex="1" parent="WIyWlLk6GJQsqaUBKTNV-1">
          <mxGeometry x="314" y="1470" width="100" height="60" as="geometry" />
        </mxCell>
      </root>
    </mxGraphModel>
  </diagram>
</mxfile>
